<?xml version="1.0" encoding="UTF-8"?>
<svg id="Capa_2" data-name="Capa 2" xmlns="http://www.w3.org/2000/svg" viewBox="0 0 869.39 189.72">
  <g id="Capa_1-2" data-name="Capa 1">
    <g>
      <path d="M398.33,108.51V38.27h20.74l16.74,27.58c1.44,2.39,2.8,4.78,4.05,7.17,1.26,2.39,2.48,5.02,3.65,7.9,1.18,2.88,2.38,6.23,3.61,10.07h-1.65c-.16-2.55-.35-5.49-.59-8.84s-.45-6.65-.64-9.9-.28-5.99-.28-8.23v-25.74h19.61v70.24h-20.74l-15.6-25.65c-1.76-2.92-3.31-5.65-4.64-8.18-1.34-2.53-2.62-5.21-3.87-8.04-1.24-2.83-2.66-6.1-4.27-9.81h1.98c.25,3.3.5,6.58.73,9.85.24,3.27.42,6.3.57,9.1.14,2.8.21,5.16.21,7.07v25.65h-19.61Z"/>
      <path d="M498.32,109.45c-5.72,0-10.62-1.14-14.71-3.42-4.09-2.28-7.21-5.45-9.36-9.52-2.15-4.07-3.23-8.81-3.23-14.21s1.08-10.14,3.23-14.21c2.15-4.07,5.27-7.24,9.36-9.52,4.08-2.28,8.99-3.42,14.71-3.42s10.61,1.14,14.66,3.42c4.05,2.28,7.16,5.45,9.31,9.52,2.15,4.07,3.23,8.81,3.23,14.21s-1.08,10.14-3.23,14.21c-2.15,4.07-5.26,7.24-9.31,9.52-4.05,2.28-8.94,3.42-14.66,3.42ZM498.32,95.31c1.63,0,3.04-.52,4.22-1.56,1.18-1.04,2.08-2.54,2.71-4.5.63-1.96.94-4.31.94-7.05s-.31-5.11-.94-7.02c-.63-1.92-1.53-3.38-2.71-4.38-1.18-1.01-2.59-1.51-4.22-1.51s-3.1.5-4.29,1.51c-1.2,1.01-2.11,2.47-2.73,4.38-.63,1.92-.94,4.26-.94,7.02s.31,5.08.94,7.05c.63,1.96,1.54,3.47,2.73,4.5,1.19,1.04,2.62,1.56,4.29,1.56Z"/>
      <path d="M533.25,108.51v-52.71h18.39v10.09h.57c.94-3.74,2.46-6.47,4.55-8.18,2.09-1.71,4.53-2.57,7.33-2.57.82,0,1.63.06,2.45.19.82.13,1.6.31,2.36.57v16.12c-.94-.35-2.1-.59-3.47-.73s-2.54-.21-3.51-.21c-1.86,0-3.52.42-5,1.25-1.48.83-2.63,2-3.47,3.49-.83,1.49-1.25,3.25-1.25,5.26v27.44h-18.95Z"/>
      <path d="M590.96,109.17c-3.74,0-7.19-.98-10.35-2.95-3.16-1.96-5.68-4.94-7.57-8.93-1.89-3.99-2.83-9.02-2.83-15.09,0-6.38.99-11.56,2.97-15.53,1.98-3.98,4.54-6.89,7.68-8.75,3.14-1.85,6.44-2.78,9.9-2.78,2.61,0,4.89.45,6.86,1.34,1.96.9,3.61,2.1,4.95,3.61,1.34,1.51,2.33,3.16,2.99,4.95h.28v-26.78h18.95v70.24h-18.76v-8.67h-.47c-.72,1.79-1.76,3.39-3.11,4.79-1.35,1.4-2.99,2.51-4.9,3.32-1.92.82-4.12,1.23-6.6,1.23ZM597.93,94.65c1.73,0,3.22-.51,4.48-1.53,1.26-1.02,2.22-2.46,2.9-4.31.68-1.85,1.01-4.05,1.01-6.6s-.34-4.85-1.01-6.72c-.68-1.87-1.64-3.31-2.9-4.31-1.26-1.01-2.75-1.51-4.48-1.51s-3.21.5-4.43,1.51c-1.23,1.01-2.16,2.44-2.81,4.31-.64,1.87-.97,4.11-.97,6.72s.32,4.8.97,6.67c.64,1.87,1.58,3.3,2.81,4.29,1.23.99,2.7,1.49,4.43,1.49Z"/>
      <path d="M631.78,108.51l22.77-70.24h26.02l23.62,70.24h-21.59l-8.16-27.25c-1.76-5.91-3.41-12.05-4.95-18.41-1.54-6.36-3-12.69-4.38-18.98h4.34c-1.32,6.29-2.66,12.61-4.01,18.98-1.35,6.36-2.88,12.5-4.57,18.41l-7.78,27.25h-21.31ZM648.66,95.03v-14.24h38.66v14.24h-38.66Z"/>
      <path d="M711.17,108.51v-52.71h18.39v10.09h.57c.94-3.74,2.46-6.47,4.55-8.18,2.09-1.71,4.53-2.57,7.33-2.57.82,0,1.63.06,2.45.19.82.13,1.6.31,2.36.57v16.12c-.94-.35-2.1-.59-3.47-.73s-2.54-.21-3.51-.21c-1.86,0-3.52.42-5,1.25-1.48.83-2.63,2-3.47,3.49-.83,1.49-1.25,3.25-1.25,5.26v27.44h-18.95Z"/>
      <path d="M753.04,108.51v-52.71h18.39v10.09h.57c.94-3.74,2.46-6.47,4.55-8.18,2.09-1.71,4.53-2.57,7.33-2.57.82,0,1.63.06,2.45.19.82.13,1.6.31,2.36.57v16.12c-.94-.35-2.1-.59-3.47-.73s-2.54-.21-3.51-.21c-1.86,0-3.52.42-5,1.25-1.48.83-2.63,2-3.47,3.49-.83,1.49-1.25,3.25-1.25,5.26v27.44h-18.95Z"/>
      <path d="M817.15,109.45c-5.63,0-10.47-1.08-14.54-3.23-4.07-2.15-7.19-5.26-9.36-9.31-2.17-4.05-3.25-8.93-3.25-14.61s1.09-10.19,3.28-14.26c2.18-4.07,5.27-7.24,9.26-9.5,3.99-2.26,8.71-3.39,14.14-3.39,3.99,0,7.6.62,10.82,1.86,3.22,1.24,5.98,3.03,8.27,5.37,2.29,2.34,4.05,5.18,5.28,8.51,1.23,3.33,1.84,7.1,1.84,11.31v4.34h-47.05v-10.37h38.19l-8.86,2.17c0-2.14-.31-3.94-.94-5.4-.63-1.46-1.56-2.58-2.78-3.35-1.23-.77-2.75-1.16-4.57-1.16s-3.35.39-4.57,1.16c-1.23.77-2.15,1.89-2.78,3.35-.63,1.46-.94,3.26-.94,5.4v7.54c0,2.33.37,4.25,1.11,5.78.74,1.53,1.78,2.66,3.14,3.39,1.35.74,2.92,1.11,4.71,1.11,1.29,0,2.46-.18,3.51-.54,1.05-.36,1.96-.88,2.71-1.56.75-.68,1.32-1.5,1.7-2.48l16.69,2.45c-.88,3.14-2.44,5.87-4.67,8.18-2.23,2.31-5.05,4.09-8.46,5.35-3.41,1.26-7.36,1.89-11.86,1.89Z"/>
      <path d="M869.39,38.27v70.24h-18.95V38.27h18.95Z"/>
    </g>
    <path d="M175.75,0l-44.8,138.2v.03s-.25.75-.25.75l-1.63,4.96.06-.12-12.81,39.52-38.26-62.89c-4.76-7.89-8.94-15.25-12.55-22.09-3.61-6.83-7.09-14.07-10.44-21.71-1.57-3.6-3.26-7.46-5.06-11.58.29,3.91.58,7.81.86,11.71.64,8.83,1.15,17.02,1.53,24.57.38,7.56.57,13.93.57,19.1v69.27H0V0h56.03l45.2,74.49c3.9,6.45,7.55,12.9,10.95,19.35,3.39,6.45,6.68,13.56,9.87,21.33,1.39,3.4,2.8,7.06,4.22,10.96-.17-2.46-.34-5.01-.53-7.65-.64-9.04-1.21-17.95-1.72-26.74-.51-8.78-.76-16.19-.76-22.22V0h52.49Z"/>
    <path d="M170.01,114.85v38.45h104.41v-38.45h-104.41ZM300,130.24L256.21,0h-70.28l-.18.56-8.46,26.09-1.07,3.3-41.04,126.6-10.75,33.17h57.55l3.77-13.2,6.63-23.22,10.61-37.18c.12-.42.24-.84.36-1.27,4.44-15.56,8.44-31.71,11.99-48.45,1.73-8.16,3.46-16.3,5.17-24.42,1.88,8.11,3.8,16.25,5.78,24.42,3.41,14.1,7.02,27.79,10.84,41.05.71,2.48,1.43,4.95,2.16,7.4.12.43.24.85.37,1.27l11.13,37.18,10.9,36.42h58.31l-20-59.48Z"/>
    <g>
      <path d="M407.78,158.14c-1.88,0-3.5-.3-4.88-.91s-2.46-1.45-3.24-2.54-1.22-2.36-1.33-3.82h3.41c.09.98.43,1.79,1,2.42s1.3,1.11,2.19,1.42,1.84.46,2.86.46c1.18,0,2.23-.19,3.17-.58s1.68-.93,2.23-1.63.82-1.51.82-2.43c0-.84-.24-1.52-.71-2.04s-1.1-.96-1.88-1.29-1.64-.63-2.57-.89l-3.15-.89c-2.1-.59-3.73-1.44-4.89-2.55s-1.75-2.52-1.75-4.25c0-1.47.4-2.75,1.19-3.85.79-1.1,1.86-1.95,3.22-2.56s2.87-.91,4.54-.91,3.23.3,4.54.91,2.36,1.43,3.12,2.47c.76,1.04,1.17,2.22,1.21,3.54h-3.25c-.15-1.27-.76-2.25-1.82-2.94s-2.37-1.04-3.91-1.04c-1.12,0-2.1.18-2.94.55s-1.5.87-1.97,1.5-.7,1.36-.7,2.18c0,.91.28,1.64.85,2.19s1.23.98,2.01,1.29,1.48.55,2.11.73l2.6.72c.7.19,1.47.44,2.32.77s1.65.76,2.42,1.3,1.4,1.23,1.9,2.06.74,1.86.74,3.07c0,1.42-.37,2.7-1.11,3.84s-1.81,2.04-3.22,2.71-3.12,1-5.12,1Z"/>
      <path d="M420.17,157.69l9.45-26.04h3.84l9.58,26.04h-3.5l-5.52-15.45c-.34-.96-.73-2.15-1.18-3.57s-.99-3.25-1.63-5.46h.63c-.63,2.24-1.17,4.08-1.63,5.53-.46,1.45-.84,2.62-1.14,3.5l-5.37,15.45h-3.53ZM424.93,150.42v-2.9h13.37v2.9h-13.37Z"/>
      <path d="M447.1,157.69v-26.04h3.32v23.1h12.06v2.94h-15.38Z"/>
      <path d="M467.34,157.69v-26.04h8.91c2.03,0,3.7.37,5.01,1.11,1.31.74,2.28,1.73,2.92,2.98s.95,2.64.95,4.19-.32,2.95-.95,4.21-1.6,2.26-2.91,3.01-2.97,1.12-5,1.12h-6.31v-2.92h6.15c1.37,0,2.48-.24,3.32-.71s1.45-1.12,1.83-1.94.57-1.74.57-2.77-.19-1.94-.57-2.75-.99-1.45-1.83-1.91-1.96-.7-3.35-.7h-5.42v23.12h-3.32Z"/>
      <path d="M502.27,147.67c-.65,0-1.21-.23-1.67-.69s-.69-1.02-.69-1.67.23-1.21.69-1.67,1.02-.69,1.67-.69,1.21.23,1.67.69.69,1.02.69,1.67-.23,1.21-.69,1.67-1.02.69-1.67.69Z"/>
      <path d="M520.64,157.69v-26.04h15.75v2.94h-12.43v8.91h11.24v2.94h-11.24v11.25h-3.32Z"/>
      <path d="M552.32,158.04c-2.23,0-4.21-.54-5.95-1.62s-3.11-2.62-4.12-4.61c-1-2-1.5-4.37-1.5-7.12s.5-5.14,1.5-7.14c1-2,2.37-3.54,4.12-4.62s3.73-1.63,5.95-1.63,4.21.54,5.94,1.63,3.1,2.62,4.1,4.62c1,2,1.49,4.38,1.49,7.14s-.5,5.12-1.49,7.12c-1,2-2.36,3.54-4.1,4.61s-3.72,1.62-5.94,1.62ZM552.32,154.96c1.55,0,2.95-.39,4.2-1.18s2.25-1.95,2.99-3.48c.74-1.53,1.11-3.4,1.11-5.62s-.37-4.12-1.11-5.65c-.74-1.53-1.74-2.69-2.99-3.48s-2.65-1.18-4.2-1.18-2.97.4-4.23,1.19-2.26,1.95-3,3.49c-.74,1.53-1.11,3.41-1.11,5.64s.37,4.08,1.11,5.61c.74,1.53,1.74,2.69,3,3.48s2.67,1.19,4.23,1.19Z"/>
      <path d="M569.14,157.69v-26.04h3.32v23.1h12.06v2.94h-15.38Z"/>
      <path d="M589.37,157.69v-26.04h3.32v23.1h12.06v2.94h-15.38Z"/>
      <path d="M612.93,131.65v26.04h-3.32v-26.04h3.32Z"/>
      <path d="M629.76,158.04c-2.23,0-4.21-.54-5.95-1.62-1.74-1.08-3.11-2.62-4.11-4.61-1-2-1.49-4.37-1.49-7.12s.5-5.14,1.49-7.14c1-2,2.37-3.54,4.11-4.62,1.74-1.08,3.73-1.63,5.95-1.63,1.32,0,2.56.19,3.73.58s2.22.95,3.15,1.69,1.71,1.64,2.33,2.69,1.05,2.25,1.28,3.59h-3.32c-.19-.9-.5-1.68-.95-2.36s-1-1.25-1.64-1.71-1.36-.82-2.14-1.05-1.6-.35-2.45-.35c-1.56,0-2.97.4-4.23,1.19s-2.25,1.95-2.99,3.49c-.73,1.53-1.1,3.41-1.1,5.64s.37,4.09,1.11,5.62,1.74,2.69,3,3.48c1.26.79,2.66,1.18,4.21,1.18.85,0,1.67-.12,2.45-.36s1.49-.59,2.14-1.05,1.19-1.03,1.64-1.71.77-1.47.95-2.35h3.32c-.22,1.33-.64,2.52-1.27,3.57s-1.4,1.95-2.33,2.69-1.98,1.31-3.15,1.7-2.42.59-3.75.59Z"/>
      <path d="M645.36,157.69v-26.04h15.87v2.94h-12.55v8.49h11.69v2.94h-11.69v8.74h12.7v2.94h-16.03Z"/>
      <path d="M678.95,147.67c-.65,0-1.21-.23-1.67-.69s-.69-1.02-.69-1.67.23-1.21.69-1.67,1.02-.69,1.67-.69,1.21.23,1.67.69.69,1.02.69,1.67-.23,1.21-.69,1.67-1.02.69-1.67.69Z"/>
      <path d="M697.32,157.69v-26.04h15.75v2.94h-12.43v8.91h11.24v2.94h-11.24v11.25h-3.32Z"/>
      <path d="M729,158.04c-2.23,0-4.21-.54-5.95-1.62-1.74-1.08-3.11-2.62-4.12-4.61s-1.5-4.37-1.5-7.12.5-5.14,1.5-7.14,2.37-3.54,4.12-4.62c1.74-1.08,3.73-1.63,5.95-1.63s4.21.54,5.94,1.63,3.1,2.62,4.1,4.62c1,2,1.49,4.38,1.49,7.14s-.5,5.12-1.49,7.12c-1,2-2.36,3.54-4.1,4.61s-3.72,1.62-5.94,1.62ZM729,154.96c1.55,0,2.95-.39,4.2-1.18s2.25-1.95,2.99-3.48c.74-1.53,1.11-3.4,1.11-5.62s-.37-4.12-1.11-5.65c-.74-1.53-1.74-2.69-2.99-3.48s-2.65-1.18-4.2-1.18-2.97.4-4.23,1.19-2.26,1.95-3,3.49c-.74,1.53-1.11,3.41-1.11,5.64s.37,4.08,1.11,5.61c.74,1.53,1.74,2.69,3,3.48s2.67,1.19,4.23,1.19Z"/>
      <path d="M745.81,157.69v-26.04h8.91c2.03,0,3.7.35,5.01,1.04,1.31.69,2.28,1.65,2.92,2.86s.95,2.59.95,4.14-.32,2.92-.95,4.11-1.6,2.12-2.91,2.79-2.97,1-5,1h-7.08v-2.95h6.92c1.37,0,2.48-.2,3.31-.6s1.44-.97,1.83-1.71.58-1.62.58-2.63-.19-1.94-.58-2.7-1-1.36-1.83-1.78-1.95-.64-3.34-.64h-5.42v23.12h-3.32ZM760.77,157.69l-6.29-11.73h3.74l6.4,11.73h-3.84Z"/>
      <path d="M768.85,157.69v-26.04h4.72l6.41,16.43c.15.38.32.87.52,1.44s.4,1.2.61,1.88.42,1.35.62,2.02.37,1.29.52,1.86h-.73c.16-.54.34-1.13.54-1.79s.4-1.33.62-2.01.42-1.32.62-1.91.37-1.09.52-1.49l6.33-16.43h4.74v26.04h-3.27v-14.87c0-.54,0-1.15,0-1.83s.02-1.41.03-2.17.03-1.53.05-2.31.03-1.54.04-2.27h.28c-.24.8-.5,1.62-.78,2.46s-.54,1.64-.8,2.41-.51,1.48-.74,2.12-.43,1.17-.59,1.59l-5.82,14.87h-2.88l-5.91-14.87c-.16-.41-.36-.92-.58-1.55s-.46-1.32-.73-2.08-.53-1.57-.81-2.41c-.28-.84-.57-1.69-.86-2.54h.31c.02.65.04,1.36.06,2.11s.03,1.52.04,2.3.02,1.52.03,2.24.02,1.36.02,1.93v14.87h-3.16Z"/>
      <path d="M811.36,158.11c-2.05,0-3.84-.4-5.37-1.21s-2.72-1.9-3.56-3.3-1.26-2.99-1.26-4.77v-17.18h3.32v16.92c0,1.25.28,2.36.83,3.33s1.34,1.74,2.37,2.3,2.25.84,3.67.84,2.64-.28,3.66-.84,1.8-1.33,2.35-2.3.82-2.08.82-3.33v-16.92h3.32v17.18c0,1.78-.42,3.37-1.26,4.77s-2.02,2.5-3.54,3.3-3.31,1.21-5.36,1.21Z"/>
      <path d="M827.81,157.69v-26.04h3.32v23.1h12.06v2.94h-15.38Z"/>
      <path d="M845.81,157.69l9.45-26.04h3.84l9.58,26.04h-3.5l-5.52-15.45c-.34-.96-.73-2.15-1.18-3.57-.45-1.43-.99-3.25-1.63-5.46h.63c-.63,2.24-1.17,4.08-1.63,5.53s-.84,2.62-1.14,3.5l-5.37,15.45h-3.53ZM850.56,150.42v-2.9h13.37v2.9h-13.37Z"/>
    </g>
  </g>
</svg>