<?xml version="1.0" encoding="UTF-8"?>
<svg id="Capa_2" data-name="Capa 2" xmlns="http://www.w3.org/2000/svg" viewBox="0 0 471.06 120.6">
  <defs>
    <style>
      .cls-1 {
        fill: #fff;
      }
    </style>
  </defs>
  <g id="Capa_1-2" data-name="Capa 1">
    <g>
      <path class="cls-1" d="M0,70.24V0h20.74l16.74,27.58c1.44,2.39,2.8,4.78,4.05,7.17,1.26,2.39,2.48,5.02,3.65,7.9,1.18,2.88,2.38,6.23,3.61,10.07h-1.65c-.16-2.55-.35-5.49-.59-8.84s-.45-6.65-.64-9.9-.28-5.99-.28-8.23V0h19.61v70.24h-20.74l-15.6-25.65c-1.76-2.92-3.31-5.65-4.64-8.18-1.34-2.53-2.62-5.21-3.87-8.04-1.24-2.83-2.66-6.1-4.27-9.81h1.98c.25,3.3.5,6.58.73,9.85.24,3.27.42,6.3.57,9.1.14,2.8.21,5.16.21,7.07v25.65H0Z"/>
      <path class="cls-1" d="M99.99,71.19c-5.72,0-10.62-1.14-14.71-3.42-4.09-2.28-7.21-5.45-9.36-9.52-2.15-4.07-3.23-8.81-3.23-14.21s1.08-10.14,3.23-14.21c2.15-4.07,5.27-7.24,9.36-9.52,4.08-2.28,8.99-3.42,14.71-3.42s10.61,1.14,14.66,3.42c4.05,2.28,7.16,5.45,9.31,9.52,2.15,4.07,3.23,8.81,3.23,14.21s-1.08,10.14-3.23,14.21c-2.15,4.07-5.26,7.24-9.31,9.52-4.05,2.28-8.94,3.42-14.66,3.42ZM99.99,57.04c1.63,0,3.04-.52,4.22-1.56s2.08-2.54,2.71-4.5c.63-1.96.94-4.31.94-7.05s-.31-5.11-.94-7.02c-.63-1.92-1.53-3.38-2.71-4.38-1.18-1.01-2.59-1.51-4.22-1.51s-3.1.5-4.29,1.51c-1.2,1.01-2.11,2.47-2.73,4.38-.63,1.92-.94,4.26-.94,7.02s.31,5.08.94,7.05c.63,1.96,1.54,3.47,2.73,4.5,1.19,1.04,2.62,1.56,4.29,1.56Z"/>
      <path class="cls-1" d="M134.92,70.24V17.54h18.39v10.09h.57c.94-3.74,2.46-6.47,4.55-8.18,2.09-1.71,4.53-2.57,7.33-2.57.82,0,1.63.06,2.45.19.82.13,1.6.31,2.36.57v16.12c-.94-.35-2.1-.59-3.47-.73s-2.54-.21-3.51-.21c-1.86,0-3.52.42-5,1.25-1.48.83-2.63,2-3.47,3.49-.83,1.49-1.25,3.25-1.25,5.26v27.44h-18.95Z"/>
      <path class="cls-1" d="M192.63,70.9c-3.74,0-7.19-.98-10.35-2.95-3.16-1.96-5.68-4.94-7.57-8.93-1.89-3.99-2.83-9.02-2.83-15.09,0-6.38.99-11.56,2.97-15.53,1.98-3.98,4.54-6.89,7.68-8.75,3.14-1.85,6.44-2.78,9.9-2.78,2.61,0,4.89.45,6.86,1.34,1.96.9,3.61,2.1,4.95,3.61,1.34,1.51,2.33,3.16,2.99,4.95h.28V0h18.95v70.24h-18.76v-8.67h-.47c-.72,1.79-1.76,3.39-3.11,4.79-1.35,1.4-2.99,2.51-4.9,3.32-1.92.82-4.12,1.23-6.6,1.23ZM199.61,56.38c1.73,0,3.22-.51,4.48-1.53,1.26-1.02,2.22-2.46,2.9-4.31.68-1.85,1.01-4.05,1.01-6.6s-.34-4.85-1.01-6.72c-.68-1.87-1.64-3.31-2.9-4.31-1.26-1.01-2.75-1.51-4.48-1.51s-3.21.5-4.43,1.51c-1.23,1.01-2.16,2.44-2.81,4.31-.64,1.87-.97,4.11-.97,6.72s.32,4.8.97,6.67c.64,1.87,1.58,3.3,2.81,4.29s2.7,1.49,4.43,1.49Z"/>
      <path class="cls-1" d="M233.45,70.24L256.22,0h26.02l23.62,70.24h-21.59l-8.16-27.25c-1.76-5.91-3.41-12.05-4.95-18.41-1.54-6.36-3-12.69-4.38-18.98h4.34c-1.32,6.29-2.66,12.61-4.01,18.98-1.35,6.36-2.88,12.5-4.57,18.41l-7.78,27.25h-21.31ZM250.33,56.76v-14.24h38.66v14.24h-38.66Z"/>
      <path class="cls-1" d="M312.84,70.24V17.54h18.39v10.09h.57c.94-3.74,2.46-6.47,4.55-8.18,2.09-1.71,4.53-2.57,7.33-2.57.82,0,1.63.06,2.45.19.82.13,1.6.31,2.36.57v16.12c-.94-.35-2.1-.59-3.47-.73s-2.54-.21-3.51-.21c-1.86,0-3.52.42-5,1.25-1.48.83-2.63,2-3.47,3.49-.83,1.49-1.25,3.25-1.25,5.26v27.44h-18.95Z"/>
      <path class="cls-1" d="M354.71,70.24V17.54h18.39v10.09h.57c.94-3.74,2.46-6.47,4.55-8.18,2.09-1.71,4.53-2.57,7.33-2.57.82,0,1.63.06,2.45.19.82.13,1.6.31,2.36.57v16.12c-.94-.35-2.1-.59-3.47-.73s-2.54-.21-3.51-.21c-1.86,0-3.52.42-5,1.25-1.48.83-2.63,2-3.47,3.49-.83,1.49-1.25,3.25-1.25,5.26v27.44h-18.95Z"/>
      <path class="cls-1" d="M418.82,71.19c-5.63,0-10.47-1.08-14.54-3.23-4.07-2.15-7.19-5.26-9.36-9.31s-3.25-8.93-3.25-14.61,1.09-10.19,3.28-14.26c2.18-4.07,5.27-7.24,9.26-9.5,3.99-2.26,8.71-3.39,14.14-3.39,3.99,0,7.6.62,10.82,1.86,3.22,1.24,5.98,3.03,8.27,5.37,2.29,2.34,4.05,5.18,5.28,8.51,1.23,3.33,1.84,7.1,1.84,11.31v4.34h-47.05v-10.37h38.19l-8.86,2.17c0-2.14-.31-3.94-.94-5.4-.63-1.46-1.56-2.58-2.78-3.35-1.23-.77-2.75-1.16-4.57-1.16s-3.35.39-4.57,1.16c-1.23.77-2.15,1.89-2.78,3.35-.63,1.46-.94,3.26-.94,5.4v7.54c0,2.33.37,4.25,1.11,5.78.74,1.53,1.78,2.66,3.14,3.39,1.35.74,2.92,1.11,4.71,1.11,1.29,0,2.46-.18,3.51-.54,1.05-.36,1.96-.88,2.71-1.56.75-.68,1.32-1.5,1.7-2.48l16.69,2.45c-.88,3.14-2.44,5.87-4.67,8.18-2.23,2.31-5.05,4.09-8.46,5.35-3.41,1.26-7.36,1.89-11.86,1.89Z"/>
      <path class="cls-1" d="M471.06,0v70.24h-18.95V0h18.95Z"/>
    </g>
    <g>
      <path class="cls-1" d="M11.68,120.53c-2.25,0-4.26-.54-6.02-1.63-1.76-1.09-3.15-2.64-4.15-4.67-1.01-2.02-1.51-4.42-1.51-7.2s.5-5.2,1.51-7.22c1.01-2.02,2.39-3.58,4.15-4.67s3.77-1.64,6.02-1.64c1.33,0,2.59.19,3.77.58s2.25.96,3.19,1.71,1.73,1.66,2.36,2.72c.63,1.07,1.06,2.28,1.3,3.63h-3.36c-.19-.91-.51-1.7-.96-2.39s-1.01-1.26-1.66-1.73-1.38-.82-2.16-1.06-1.61-.35-2.47-.35c-1.58,0-3,.4-4.28,1.2s-2.28,1.98-3.02,3.53-1.11,3.45-1.11,5.7.37,4.13,1.12,5.68c.75,1.55,1.76,2.72,3.03,3.52s2.69,1.19,4.26,1.19c.86,0,1.68-.12,2.47-.36s1.51-.59,2.16-1.06,1.21-1.04,1.66-1.73.77-1.48.96-2.38h3.36c-.22,1.34-.65,2.54-1.28,3.6s-1.42,1.97-2.36,2.72-2.01,1.33-3.19,1.72-2.45.59-3.79.59Z"/>
      <path class="cls-1" d="M37.76,120.6c-2.07,0-3.88-.41-5.43-1.22s-2.75-1.93-3.6-3.34c-.85-1.41-1.27-3.02-1.27-4.82v-17.37h3.36v17.11c0,1.26.28,2.38.84,3.37s1.36,1.76,2.39,2.32,2.27.85,3.71.85,2.67-.28,3.7-.85,1.82-1.34,2.38-2.32.83-2.11.83-3.37v-17.11h3.36v17.37c0,1.8-.42,3.41-1.27,4.82s-2.04,2.53-3.58,3.34c-1.54.81-3.34,1.22-5.42,1.22Z"/>
      <path class="cls-1" d="M57.75,93.85v26.33h-3.36v-26.33h3.36Z"/>
      <path class="cls-1" d="M64.11,120.18v-26.33h9.01c2.05,0,3.74.35,5.06,1.05s2.31,1.66,2.95,2.89.96,2.62.96,4.19-.32,2.95-.96,4.15-1.62,2.14-2.94,2.82-3,1.02-5.05,1.02h-7.16v-2.99h7c1.39,0,2.51-.2,3.35-.61s1.46-.98,1.85-1.73.58-1.63.58-2.66-.19-1.96-.58-2.73-1.01-1.37-1.86-1.8-1.97-.65-3.38-.65h-5.48v23.38h-3.36ZM79.24,120.18l-6.36-11.86h3.78l6.47,11.86h-3.89Z"/>
      <path class="cls-1" d="M99.61,110.05c-.66,0-1.22-.23-1.69-.7s-.7-1.03-.7-1.69.23-1.22.7-1.69,1.03-.7,1.69-.7,1.22.23,1.69.7.7,1.03.7,1.69-.23,1.22-.7,1.69-1.03.7-1.69.7Z"/>
      <path class="cls-1" d="M118.19,120.18v-26.33h15.92v2.97h-12.56v9.01h11.36v2.97h-11.36v11.38h-3.36Z"/>
      <path class="cls-1" d="M150.22,120.53c-2.25,0-4.26-.54-6.02-1.63-1.76-1.09-3.15-2.64-4.16-4.67s-1.52-4.42-1.52-7.2.51-5.2,1.52-7.22,2.4-3.58,4.16-4.67,3.77-1.64,6.02-1.64,4.25.55,6.01,1.64,3.14,2.65,4.14,4.67c1.01,2.02,1.51,4.43,1.51,7.22s-.5,5.18-1.51,7.2c-1.01,2.02-2.39,3.58-4.14,4.67-1.76,1.09-3.76,1.63-6.01,1.63ZM150.22,117.42c1.57,0,2.98-.4,4.25-1.19s2.27-1.97,3.02-3.52,1.12-3.44,1.12-5.68-.37-4.17-1.12-5.72-1.76-2.72-3.02-3.52-2.68-1.19-4.25-1.19-3,.4-4.28,1.2-2.28,1.98-3.03,3.53-1.12,3.45-1.12,5.7.37,4.13,1.12,5.67,1.76,2.72,3.03,3.52,2.7,1.2,4.28,1.2Z"/>
      <path class="cls-1" d="M167.22,120.18v-26.33h3.36v23.36h12.19v2.97h-15.55Z"/>
      <path class="cls-1" d="M191.04,93.85v26.33h-3.36v-26.33h3.36Z"/>
      <path class="cls-1" d="M208.06,120.53c-2.25,0-4.26-.54-6.02-1.63s-3.15-2.64-4.15-4.67-1.51-4.42-1.51-7.2.5-5.2,1.51-7.22,2.39-3.58,4.15-4.67c1.76-1.1,3.77-1.64,6.02-1.64,1.33,0,2.59.19,3.77.58s2.25.96,3.19,1.71,1.73,1.66,2.36,2.72,1.06,2.28,1.3,3.63h-3.36c-.19-.91-.51-1.7-.96-2.39s-1.01-1.26-1.66-1.73-1.38-.82-2.16-1.06-1.61-.35-2.47-.35c-1.58,0-3,.4-4.28,1.2s-2.28,1.98-3.02,3.53-1.11,3.45-1.11,5.7.37,4.13,1.12,5.68,1.76,2.72,3.03,3.52,2.69,1.19,4.26,1.19c.86,0,1.68-.12,2.47-.36s1.51-.59,2.16-1.06,1.21-1.04,1.66-1.73.77-1.48.96-2.38h3.36c-.22,1.34-.65,2.54-1.28,3.6s-1.42,1.97-2.36,2.72-2.01,1.33-3.19,1.72-2.45.59-3.79.59Z"/>
      <path class="cls-1" d="M223.84,120.18v-26.33h3.36v23.36h12.19v2.97h-15.55Z"/>
      <path class="cls-1" d="M244.31,120.18v-26.33h16.05v2.97h-12.69v8.59h11.82v2.97h-11.82v8.84h12.85v2.97h-16.2Z"/>
      <path class="cls-1" d="M278.27,110.05c-.66,0-1.22-.23-1.69-.7s-.7-1.03-.7-1.69.23-1.22.7-1.69,1.03-.7,1.69-.7,1.22.23,1.69.7.7,1.03.7,1.69-.23,1.22-.7,1.69-1.03.7-1.69.7Z"/>
      <path class="cls-1" d="M296.84,120.18v-26.33h15.92v2.97h-12.56v9.01h11.36v2.97h-11.36v11.38h-3.36Z"/>
      <path class="cls-1" d="M328.88,120.53c-2.25,0-4.26-.54-6.02-1.63-1.76-1.09-3.15-2.64-4.16-4.67s-1.52-4.42-1.52-7.2.51-5.2,1.52-7.22,2.4-3.58,4.16-4.67,3.77-1.64,6.02-1.64,4.25.55,6.01,1.64,3.14,2.65,4.14,4.67,1.51,4.43,1.51,7.22-.5,5.18-1.51,7.2-2.39,3.58-4.14,4.67c-1.76,1.09-3.76,1.63-6.01,1.63ZM328.88,117.42c1.57,0,2.98-.4,4.25-1.19s2.27-1.97,3.02-3.52,1.12-3.44,1.12-5.68-.37-4.17-1.12-5.72-1.76-2.72-3.02-3.52-2.68-1.19-4.25-1.19-3,.4-4.28,1.2c-1.27.8-2.28,1.98-3.03,3.53s-1.12,3.45-1.12,5.7.37,4.13,1.12,5.67c.75,1.54,1.76,2.72,3.03,3.52s2.7,1.2,4.28,1.2ZM327.49,91.27l2.47-5.2h3.55l-3.43,5.2h-2.6Z"/>
      <path class="cls-1" d="M345.88,120.18v-26.33h9.01c2.05,0,3.74.35,5.06,1.05s2.31,1.66,2.95,2.89.96,2.62.96,4.19-.32,2.95-.96,4.15-1.62,2.14-2.94,2.82c-1.32.68-3,1.02-5.05,1.02h-7.16v-2.99h7c1.39,0,2.51-.2,3.35-.61s1.46-.98,1.85-1.73.58-1.63.58-2.66-.19-1.96-.58-2.73-1.01-1.37-1.86-1.8-1.97-.65-3.38-.65h-5.48v23.38h-3.36ZM361.01,120.18l-6.36-11.86h3.78l6.47,11.86h-3.89Z"/>
      <path class="cls-1" d="M369.17,120.18v-26.33h4.77l6.49,16.61c.15.39.33.87.52,1.46s.4,1.22.62,1.9.43,1.36.63,2.04.38,1.3.53,1.88h-.74c.16-.54.35-1.15.55-1.81s.41-1.34.63-2.03.43-1.33.63-1.94.38-1.1.53-1.5l6.4-16.61h4.79v26.33h-3.3v-15.04c0-.54,0-1.16,0-1.86s.02-1.43.04-2.19.04-1.54.05-2.33.03-1.56.04-2.3h.28c-.25.81-.51,1.64-.79,2.48s-.55,1.66-.81,2.44-.52,1.5-.75,2.15-.44,1.18-.6,1.61l-5.88,15.04h-2.92l-5.97-15.04c-.16-.41-.36-.93-.58-1.56s-.47-1.33-.73-2.1-.54-1.58-.82-2.44-.57-1.71-.87-2.57h.32c.02.66.04,1.37.06,2.14s.03,1.54.04,2.32.02,1.54.04,2.26.02,1.38.02,1.95v15.04h-3.2Z"/>
      <path class="cls-1" d="M412.17,120.6c-2.07,0-3.88-.41-5.43-1.22-1.55-.81-2.75-1.93-3.6-3.34s-1.27-3.02-1.27-4.82v-17.37h3.36v17.11c0,1.26.28,2.38.84,3.37s1.36,1.76,2.39,2.32,2.27.85,3.71.85,2.67-.28,3.7-.85,1.82-1.34,2.38-2.32.83-2.11.83-3.37v-17.11h3.36v17.37c0,1.8-.42,3.41-1.27,4.82s-2.04,2.53-3.58,3.34c-1.54.81-3.34,1.22-5.42,1.22Z"/>
      <path class="cls-1" d="M428.8,120.18v-26.33h3.36v23.36h12.19v2.97h-15.55Z"/>
      <path class="cls-1" d="M447,120.18l9.56-26.33h3.89l9.68,26.33h-3.53l-5.58-15.62c-.34-.97-.74-2.17-1.19-3.61s-1-3.28-1.65-5.52h.64c-.64,2.26-1.19,4.13-1.65,5.59s-.85,2.65-1.16,3.54l-5.43,15.62h-3.57ZM451.8,112.83v-2.93h13.52v2.93h-13.52Z"/>
    </g>
  </g>
</svg>