<?xml version="1.0" encoding="UTF-8"?>
<svg id="Capa_2" data-name="Capa 2" xmlns="http://www.w3.org/2000/svg" viewBox="0 0 320 189.72">
  <defs>
    <style>
      .cls-1 {
        fill: #fff;
      }
    </style>
  </defs>
  <g id="Capa_1-2" data-name="Capa 1">
    <path class="cls-1" d="M175.75,0l-44.8,138.2v.03s-.25.75-.25.75l-1.63,4.96.06-.12-12.81,39.52-38.26-62.89c-4.76-7.89-8.94-15.25-12.55-22.09-3.61-6.83-7.09-14.07-10.44-21.71-1.57-3.6-3.26-7.46-5.06-11.58.29,3.91.58,7.81.86,11.71.64,8.83,1.15,17.02,1.53,24.57.38,7.56.57,13.93.57,19.1v69.27H0V0h56.03l45.2,74.49c3.9,6.45,7.55,12.9,10.95,19.35,3.39,6.45,6.68,13.56,9.87,21.33,1.39,3.4,2.8,7.06,4.22,10.96-.17-2.46-.34-5.01-.53-7.65-.64-9.04-1.21-17.95-1.72-26.74-.51-8.78-.76-16.19-.76-22.22V0h52.49Z"/>
    <path class="cls-1" d="M170.01,114.85v38.45h104.41v-38.45h-104.41ZM300,130.24L256.21,0h-70.28l-.18.56-8.46,26.09-1.07,3.3-41.04,126.6-10.75,33.17h57.55l3.77-13.2,6.63-23.22,10.61-37.18c.12-.42.24-.84.36-1.27,4.44-15.56,8.44-31.71,11.99-48.45,1.73-8.16,3.46-16.3,5.17-24.42,1.88,8.11,3.8,16.25,5.78,24.42,3.41,14.1,7.02,27.79,10.84,41.05.71,2.48,1.43,4.95,2.16,7.4.12.43.24.85.37,1.27l11.13,37.18,10.9,36.42h58.31l-20-59.48Z"/>
  </g>
</svg>